<svg width="504" height="504" viewBox="0 0 504 504" fill="none" xmlns="http://www.w3.org/2000/svg">
<path d="M146.635 0.573942C146.894 0.317219 147.243 0.172357 147.608 0.170767C177.801 0.0390339 207.748 0.024384 238.075 0.0124592C238.831 0.012162 239.449 0.616032 239.464 1.37151C239.895 22.2662 239.9 43.1603 240.065 64.053C240.085 66.6434 238.781 67.414 236.843 68.377C214.74 79.3601 209.746 107.716 227.117 125.095C237.669 135.651 250.63 138.443 264.53 133.168C278.252 127.961 286.168 117.358 287.189 102.703C288.252 87.4492 281.375 75.8874 267.841 68.822C264.68 67.1722 263.946 65.5095 263.966 62.3238C264.086 42.2873 264.044 22.2498 264.097 1.83888C264.099 1.08072 264.709 0.464096 265.467 0.454075C295.446 0.0577934 325.383 0.0383037 355.711 0.000705539C356.074 0.000254836 356.424 0.142443 356.684 0.396632C378.288 21.5253 399.491 42.6741 420.682 63.834C420.85 64.0015 420.969 64.2177 421.152 64.561C421.45 65.1215 421.357 65.8181 420.904 66.2636C413.346 73.7061 405.7 81.2012 398.097 88.7395C391.132 95.6457 384.116 102.506 377.338 109.594C375.142 111.891 373.358 112.35 370.275 111.29C351.081 104.693 330.631 115.276 325.234 134.857C321.272 149.231 324.963 161.949 336.425 171.545C347.681 180.967 360.663 182.874 374.005 176.445C386.873 170.245 394.031 159.719 393.966 145.118C393.947 140.727 392.585 136.353 392.065 131.944C391.905 130.592 392 128.655 392.822 127.823C407.598 112.879 422.498 98.058 437.666 82.9226C438.189 82.4001 439.031 82.3788 439.586 82.8679C440.47 83.6475 441.319 84.3877 442.114 85.1829C461.785 104.877 481.49 124.539 501.02 144.373C502.609 145.987 503.788 148.792 503.803 151.052C503.987 179.058 503.848 207.066 504 235.073C504.02 238.855 503.065 239.968 499.19 239.926C480.014 239.719 460.834 239.761 441.656 239.901C438.241 239.926 436.358 239.057 434.706 235.752C427.091 220.511 410.558 213.35 393.877 217.63C378.786 221.501 367.579 236.639 368.04 252.53C368.496 268.312 379.818 282.466 394.719 285.884C411.406 289.713 427.566 282.363 434.976 267.245C436.419 264.301 438.054 263.388 441.205 263.41C460.527 263.546 479.85 263.473 499.172 263.487C500.219 263.487 501.266 263.562 502.444 263.637C503.157 263.682 503.726 264.253 503.768 264.966C503.837 266.13 503.906 267.173 503.907 268.215C503.918 296.366 503.95 324.518 503.836 352.669C503.829 354.485 503.191 356.808 501.979 358.033C481.48 378.746 460.844 399.323 440.232 419.924C440.023 420.133 439.79 420.32 439.488 420.553C438.929 420.983 438.133 420.938 437.631 420.443C433.504 416.364 429.412 412.34 425.348 408.287C414.834 397.804 404.385 387.256 393.79 376.856C391.628 374.734 391.338 372.956 392.343 370.047C398.999 350.785 388.061 330.345 368.304 324.698C349.545 319.337 329.177 331.268 324.786 350.189C320.158 370.135 332.374 389.396 352.098 393.384C358.644 394.707 364.931 394.074 371.223 391.927C372.606 391.455 375.03 391.712 375.98 392.646C390.794 407.209 405.447 421.937 420.125 436.639C420.452 436.967 420.726 437.348 421.132 437.905C421.546 438.472 421.49 439.262 420.987 439.753C414.129 446.459 407.294 453.069 400.553 459.774C386.645 473.611 372.834 487.546 358.855 501.31C357.479 502.665 355.216 503.862 353.358 503.872C324.519 504.032 295.68 503.985 266.84 503.977C266.42 503.977 266 503.94 265.486 503.891C264.798 503.825 264.253 503.27 264.198 502.581C264.117 501.564 264.034 500.574 264.033 499.584C264.016 479.805 264.082 460.027 263.951 440.249C263.933 437.385 264.819 436.034 267.414 434.737C280.929 427.982 288.646 414.13 287.274 399.731C285.907 385.393 275.429 373.058 261.178 369.007C243.578 364.005 225.263 373.828 218.609 391.838C212.597 408.112 221.022 427.703 237.062 435.105C238.309 435.68 239.857 437.402 239.866 438.601C240.024 459.821 239.966 481.043 239.935 502.265C239.935 502.46 239.877 502.656 239.791 502.89C239.59 503.435 239.075 503.814 238.496 503.848C237.458 503.908 236.391 503.978 235.323 503.978C207.492 503.991 179.662 504.056 151.833 503.874C149.539 503.859 146.674 502.744 145.055 501.145C124.426 480.769 103.975 460.213 83.4853 439.695C83.272 439.482 83.1003 439.227 82.5066 438.541C81.9882 437.943 82.042 437.033 82.6544 436.531C85.4874 434.209 88.416 431.984 91.0139 429.423C102.927 417.68 114.754 405.847 126.501 393.937C128.66 391.748 130.491 390.99 133.652 392.045C147.709 396.739 160.289 393.631 170.484 383.081C180.783 372.423 182.995 359.385 177.745 345.758C172.509 332.167 161.707 324.416 147.36 323.5C123.365 321.968 104.238 344.216 111.362 368.746C112.521 372.737 112.198 375.116 109.158 378.075C95.7244 391.156 82.5646 404.52 69.364 417.84C68.5599 418.651 67.9865 419.691 67.2805 420.898C66.8438 421.644 65.8356 421.771 65.2007 421.184C63.4183 419.537 62.2207 418.461 61.084 417.323C41.5063 397.731 21.9073 378.16 2.44582 358.453C1.12 357.111 0.19421 354.728 0.184783 352.823C0.0438154 324.384 0.14473 295.943 0.0153257 267.503C1.18093e-05 264.138 1.13444 263.4 4.25061 263.418C23.8608 263.537 43.4728 263.559 63.0824 263.397C66.3212 263.37 67.84 264.483 69.2522 267.323C76.597 282.098 93.0016 289.863 108.268 286.071C125.468 281.799 136.315 267.908 135.976 250.589C135.666 234.743 124.484 221.107 108.711 217.341C92.8286 213.549 76.8918 220.909 69.2608 235.962C67.6937 239.053 66.0132 239.939 62.6923 239.91C43.3712 239.741 24.0473 239.756 4.72584 239.899C1.30181 239.924 -0.0209003 239.21 0.00024927 235.423C0.158248 207.128 0.0338085 178.832 0.195899 150.537C0.207385 148.528 1.30052 146.04 2.72364 144.599C22.3944 124.689 42.2737 104.985 61.9233 85.0535C64.7983 82.1374 66.3615 82.3742 69.0737 85.1419C82.7051 99.0522 96.4719 112.832 110.353 126.492C112.637 128.739 112.583 130.614 111.717 133.357C104.463 156.34 119.992 178.74 143.936 179.997C160.481 180.865 175.805 168.687 179.47 151.757C183.046 135.242 173.95 118.008 158.473 111.923C149.952 108.573 141.438 108.194 132.761 111.468C131.474 111.953 129.136 111.755 128.253 110.886C113.264 96.1343 98.4205 81.2344 83.0755 65.8897C82.5328 65.3471 82.5329 64.4667 83.0758 63.9244C104.306 42.7185 125.347 21.7041 146.635 0.573942ZM195.528 313.034C195.639 313.129 195.764 313.208 195.899 313.266C213.457 320.734 230.991 328.257 248.611 335.576C250.213 336.241 252.574 336.11 254.23 335.456C272.443 328.258 290.604 320.926 308.716 313.477C310.251 312.845 311.892 311.352 312.54 309.851C320.479 291.465 328.273 273.016 335.979 254.532C336.516 253.243 336.521 251.361 336.005 250.061C328.717 231.71 321.365 213.384 313.802 195.146C313.032 193.29 311.06 191.428 309.192 190.614C291.633 182.961 273.95 175.595 256.374 167.983C253.755 166.849 251.613 166.918 249.043 167.974C231.333 175.256 213.542 182.341 195.866 189.701C194.01 190.474 192.085 192.347 191.282 194.187C183.555 211.888 175.987 229.66 168.61 247.509C167.794 249.484 167.756 252.344 168.536 254.33C175.538 272.172 182.719 289.944 190.105 307.63C190.957 309.67 193.278 311.095 195.528 313.034Z" fill="url(#paint0_linear_231_173)"/>
<defs>
<linearGradient id="paint0_linear_231_173" x1="252" y1="5.19664e-06" x2="426.337" y2="581.965" gradientUnits="userSpaceOnUse">
<stop stop-color="#F4B148"/>
<stop offset="1" stop-color="#FFB43F"/>
</linearGradient>
</defs>
</svg>
